<?xml version="1.0" encoding="UTF-8" standalone="no"?>
<!DOCTYPE svg PUBLIC "-//W3C//DTD SVG 1.1//EN"
 "http://www.w3.org/Graphics/SVG/1.1/DTD/svg11.dtd">
<!-- Generated by graphviz version 14.1.2 (20260124.0452)
 -->
<!-- Title: PreCommitWorkflow Pages: 1 -->
<svg width="423pt" height="1723pt"
 viewBox="0.00 0.00 423.00 1723.00" xmlns="http://www.w3.org/2000/svg" xmlns:xlink="http://www.w3.org/1999/xlink">
<g id="graph0" class="graph" transform="scale(1 1) rotate(0) translate(4 1718.5)">
<title>PreCommitWorkflow</title>
<polygon fill="white" stroke="none" points="-4,4 -4,-1718.5 419,-1718.5 419,4 -4,4"/>
<!-- start -->
<g id="node1" class="node">
<title>start</title>
<path fill="none" stroke="black" d="M403,-1714.5C403,-1714.5 303.75,-1714.5 303.75,-1714.5 297.75,-1714.5 291.75,-1708.5 291.75,-1702.5 291.75,-1702.5 291.75,-1690.5 291.75,-1690.5 291.75,-1684.5 297.75,-1678.5 303.75,-1678.5 303.75,-1678.5 403,-1678.5 403,-1678.5 409,-1678.5 415,-1684.5 415,-1690.5 415,-1690.5 415,-1702.5 415,-1702.5 415,-1708.5 409,-1714.5 403,-1714.5"/>
<text xml:space="preserve" text-anchor="middle" x="353.38" y="-1693" font-family="Arial" font-size="10.00">Start pre&#45;commit checks</text>
</g>
<!-- unit -->
<g id="node2" class="node">
<title>unit</title>
<path fill="none" stroke="black" d="M380.12,-1641.5C380.12,-1641.5 326.62,-1641.5 326.62,-1641.5 320.62,-1641.5 314.62,-1635.5 314.62,-1629.5 314.62,-1629.5 314.62,-1617.5 314.62,-1617.5 314.62,-1611.5 320.62,-1605.5 326.62,-1605.5 326.62,-1605.5 380.12,-1605.5 380.12,-1605.5 386.12,-1605.5 392.12,-1611.5 392.12,-1617.5 392.12,-1617.5 392.12,-1629.5 392.12,-1629.5 392.12,-1635.5 386.12,-1641.5 380.12,-1641.5"/>
<text xml:space="preserve" text-anchor="middle" x="353.38" y="-1620" font-family="Arial" font-size="10.00">Run unit tests</text>
</g>
<!-- start&#45;&gt;unit -->
<g id="edge1" class="edge">
<title>start&#45;&gt;unit</title>
<path fill="none" stroke="black" d="M353.38,-1678.08C353.38,-1678.08 353.38,-1653.43 353.38,-1653.43"/>
<polygon fill="black" stroke="black" points="356.88,-1653.43 353.38,-1643.43 349.88,-1653.43 356.88,-1653.43"/>
</g>
<!-- unit_ok -->
<g id="node3" class="node">
<title>unit_ok</title>
<path fill="none" stroke="black" d="M238.71,-1565.69C238.71,-1565.69 187.21,-1553.31 187.21,-1553.31 181.37,-1551.9 181.37,-1549.1 187.21,-1547.69 187.21,-1547.69 238.71,-1535.31 238.71,-1535.31 244.54,-1533.9 256.21,-1533.9 262.04,-1535.31 262.04,-1535.31 313.54,-1547.69 313.54,-1547.69 319.38,-1549.1 319.38,-1551.9 313.54,-1553.31 313.54,-1553.31 262.04,-1565.69 262.04,-1565.69 256.21,-1567.1 244.54,-1567.1 238.71,-1565.69"/>
<text xml:space="preserve" text-anchor="middle" x="250.38" y="-1547" font-family="Arial" font-size="10.00">Unit tests pass?</text>
</g>
<!-- unit&#45;&gt;unit_ok -->
<g id="edge2" class="edge">
<title>unit&#45;&gt;unit_ok</title>
<path fill="none" stroke="black" d="M319.92,-1605.08C319.92,-1605.08 319.92,-1563.47 319.92,-1563.47"/>
<polygon fill="black" stroke="black" points="323.42,-1563.47 319.92,-1553.47 316.42,-1563.47 323.42,-1563.47"/>
</g>
<!-- fix_unit -->
<g id="node4" class="node">
<title>fix_unit</title>
<path fill="none" stroke="black" d="M368.5,-1472C368.5,-1472 308.25,-1472 308.25,-1472 302.25,-1472 296.25,-1466 296.25,-1460 296.25,-1460 296.25,-1448 296.25,-1448 296.25,-1442 302.25,-1436 308.25,-1436 308.25,-1436 368.5,-1436 368.5,-1436 374.5,-1436 380.5,-1442 380.5,-1448 380.5,-1448 380.5,-1460 380.5,-1460 380.5,-1466 374.5,-1472 368.5,-1472"/>
<text xml:space="preserve" text-anchor="middle" x="338.38" y="-1456.5" font-family="Arial" font-size="10.00">Fix failures and</text>
<text xml:space="preserve" text-anchor="middle" x="338.38" y="-1444.5" font-family="Arial" font-size="10.00">re&#45;run unit tests</text>
</g>
<!-- unit_ok&#45;&gt;fix_unit -->
<g id="edge3" class="edge">
<title>unit_ok&#45;&gt;fix_unit</title>
<path fill="none" stroke="black" d="M310.73,-1546.83C310.73,-1546.83 310.73,-1483.9 310.73,-1483.9"/>
<polygon fill="black" stroke="black" points="314.23,-1483.9 310.73,-1473.9 307.23,-1483.9 314.23,-1483.9"/>
<text xml:space="preserve" text-anchor="middle" x="330.38" y="-1505.95" font-family="Arial" font-size="9.00">No</text>
</g>
<!-- build_cfg -->
<g id="node5" class="node">
<title>build_cfg</title>
<path fill="none" stroke="black" d="M183.17,-1481.71C183.17,-1481.71 122.08,-1458.29 122.08,-1458.29 116.48,-1456.15 116.48,-1451.85 122.08,-1449.71 122.08,-1449.71 183.17,-1426.29 183.17,-1426.29 188.77,-1424.15 199.98,-1424.15 205.58,-1426.29 205.58,-1426.29 266.67,-1449.71 266.67,-1449.71 272.27,-1451.85 272.27,-1456.15 266.67,-1458.29 266.67,-1458.29 205.58,-1481.71 205.58,-1481.71 199.98,-1483.85 188.77,-1483.85 183.17,-1481.71"/>
<text xml:space="preserve" text-anchor="middle" x="194.38" y="-1456.5" font-family="Arial" font-size="10.00">Build command</text>
<text xml:space="preserve" text-anchor="middle" x="194.38" y="-1444.5" font-family="Arial" font-size="10.00">configured?</text>
</g>
<!-- unit_ok&#45;&gt;build_cfg -->
<g id="edge5" class="edge">
<title>unit_ok&#45;&gt;build_cfg</title>
<path fill="none" stroke="black" d="M226.71,-1537.88C226.71,-1537.88 226.71,-1485.52 226.71,-1485.52"/>
<polygon fill="black" stroke="black" points="230.21,-1485.52 226.71,-1475.52 223.21,-1485.52 230.21,-1485.52"/>
<text xml:space="preserve" text-anchor="middle" x="223.88" y="-1505.95" font-family="Arial" font-size="9.00">Yes</text>
</g>
<!-- fix_unit&#45;&gt;unit -->
<g id="edge4" class="edge">
<title>fix_unit&#45;&gt;unit</title>
<path fill="none" stroke="black" d="M352.86,-1472.46C352.86,-1472.46 352.86,-1593.55 352.86,-1593.55"/>
<polygon fill="black" stroke="black" points="349.36,-1593.55 352.86,-1603.55 356.36,-1593.55 349.36,-1593.55"/>
</g>
<!-- build -->
<g id="node6" class="node">
<title>build</title>
<path fill="none" stroke="black" d="M261,-1375.5C261,-1375.5 227.75,-1375.5 227.75,-1375.5 221.75,-1375.5 215.75,-1369.5 215.75,-1363.5 215.75,-1363.5 215.75,-1351.5 215.75,-1351.5 215.75,-1345.5 221.75,-1339.5 227.75,-1339.5 227.75,-1339.5 261,-1339.5 261,-1339.5 267,-1339.5 273,-1345.5 273,-1351.5 273,-1351.5 273,-1363.5 273,-1363.5 273,-1369.5 267,-1375.5 261,-1375.5"/>
<text xml:space="preserve" text-anchor="middle" x="244.38" y="-1354" font-family="Arial" font-size="10.00">Run build</text>
</g>
<!-- build_cfg&#45;&gt;build -->
<g id="edge6" class="edge">
<title>build_cfg&#45;&gt;build</title>
<path fill="none" stroke="black" d="M244.38,-1440.99C244.38,-1440.99 244.38,-1387.42 244.38,-1387.42"/>
<polygon fill="black" stroke="black" points="247.88,-1387.42 244.38,-1377.42 240.88,-1387.42 247.88,-1387.42"/>
<text xml:space="preserve" text-anchor="middle" x="219.88" y="-1395.45" font-family="Arial" font-size="9.00">Yes</text>
</g>
<!-- lint_cfg -->
<g id="node9" class="node">
<title>lint_cfg</title>
<path fill="none" stroke="black" d="M141.28,-1205.92C141.28,-1205.92 85.97,-1183.08 85.97,-1183.08 80.42,-1180.79 80.42,-1176.21 85.97,-1173.92 85.97,-1173.92 141.28,-1151.08 141.28,-1151.08 146.83,-1148.79 157.92,-1148.79 163.47,-1151.08 163.47,-1151.08 218.78,-1173.92 218.78,-1173.92 224.33,-1176.21 224.33,-1180.79 218.78,-1183.08 218.78,-1183.08 163.47,-1205.92 163.47,-1205.92 157.92,-1208.21 146.83,-1208.21 141.28,-1205.92"/>
<text xml:space="preserve" text-anchor="middle" x="152.38" y="-1181" font-family="Arial" font-size="10.00">Lint command</text>
<text xml:space="preserve" text-anchor="middle" x="152.38" y="-1169" font-family="Arial" font-size="10.00">configured?</text>
</g>
<!-- build_cfg&#45;&gt;lint_cfg -->
<g id="edge11" class="edge">
<title>build_cfg&#45;&gt;lint_cfg</title>
<path fill="none" stroke="black" d="M140.21,-1442.51C140.21,-1442.51 140.21,-1217.42 140.21,-1217.42"/>
<polygon fill="black" stroke="black" points="143.71,-1217.42 140.21,-1207.42 136.71,-1217.42 143.71,-1217.42"/>
<text xml:space="preserve" text-anchor="middle" x="147.38" y="-1312.95" font-family="Arial" font-size="9.00">No</text>
</g>
<!-- build_ok -->
<g id="node7" class="node">
<title>build_ok</title>
<path fill="none" stroke="black" d="M232.71,-1290.19C232.71,-1290.19 181.21,-1277.81 181.21,-1277.81 175.37,-1276.4 175.37,-1273.6 181.21,-1272.19 181.21,-1272.19 232.71,-1259.81 232.71,-1259.81 238.54,-1258.4 250.21,-1258.4 256.04,-1259.81 256.04,-1259.81 307.54,-1272.19 307.54,-1272.19 313.38,-1273.6 313.38,-1276.4 307.54,-1277.81 307.54,-1277.81 256.04,-1290.19 256.04,-1290.19 250.21,-1291.6 238.54,-1291.6 232.71,-1290.19"/>
<text xml:space="preserve" text-anchor="middle" x="244.38" y="-1271.5" font-family="Arial" font-size="10.00">Build succeeds?</text>
</g>
<!-- build&#45;&gt;build_ok -->
<g id="edge7" class="edge">
<title>build&#45;&gt;build_ok</title>
<path fill="none" stroke="black" d="M244.38,-1339.19C244.38,-1339.19 244.38,-1304.77 244.38,-1304.77"/>
<polygon fill="black" stroke="black" points="247.88,-1304.77 244.38,-1294.77 240.88,-1304.77 247.88,-1304.77"/>
</g>
<!-- fix_build -->
<g id="node8" class="node">
<title>fix_build</title>
<path fill="none" stroke="black" d="M354,-1196.5C354,-1196.5 266.75,-1196.5 266.75,-1196.5 260.75,-1196.5 254.75,-1190.5 254.75,-1184.5 254.75,-1184.5 254.75,-1172.5 254.75,-1172.5 254.75,-1166.5 260.75,-1160.5 266.75,-1160.5 266.75,-1160.5 354,-1160.5 354,-1160.5 360,-1160.5 366,-1166.5 366,-1172.5 366,-1172.5 366,-1184.5 366,-1184.5 366,-1190.5 360,-1196.5 354,-1196.5"/>
<text xml:space="preserve" text-anchor="middle" x="310.38" y="-1181" font-family="Arial" font-size="10.00">Fix build blockers and</text>
<text xml:space="preserve" text-anchor="middle" x="310.38" y="-1169" font-family="Arial" font-size="10.00">re&#45;run build</text>
</g>
<!-- build_ok&#45;&gt;fix_build -->
<g id="edge8" class="edge">
<title>build_ok&#45;&gt;fix_build</title>
<path fill="none" stroke="black" d="M286.98,-1266.77C286.98,-1266.77 286.98,-1208.33 286.98,-1208.33"/>
<polygon fill="black" stroke="black" points="290.48,-1208.33 286.98,-1198.33 283.48,-1208.33 290.48,-1208.33"/>
<text xml:space="preserve" text-anchor="middle" x="286.38" y="-1230.45" font-family="Arial" font-size="9.00">No</text>
</g>
<!-- build_ok&#45;&gt;lint_cfg -->
<g id="edge10" class="edge">
<title>build_ok&#45;&gt;lint_cfg</title>
<path fill="none" stroke="black" d="M199.71,-1267.43C199.71,-1267.43 199.71,-1202.95 199.71,-1202.95"/>
<polygon fill="black" stroke="black" points="203.21,-1202.95 199.71,-1192.95 196.21,-1202.95 203.21,-1202.95"/>
<text xml:space="preserve" text-anchor="middle" x="197.88" y="-1230.45" font-family="Arial" font-size="9.00">Yes</text>
</g>
<!-- fix_build&#45;&gt;build -->
<g id="edge9" class="edge">
<title>fix_build&#45;&gt;build</title>
<path fill="none" stroke="black" d="M342.61,-1196.7C342.61,-1242.33 342.61,-1358 342.61,-1358 342.61,-1358 284.83,-1358 284.83,-1358"/>
<polygon fill="black" stroke="black" points="284.83,-1354.5 274.83,-1358 284.83,-1361.5 284.83,-1354.5"/>
</g>
<!-- lint -->
<g id="node10" class="node">
<title>lint</title>
<path fill="none" stroke="black" d="M252.38,-1100C252.38,-1100 222.38,-1100 222.38,-1100 216.38,-1100 210.38,-1094 210.38,-1088 210.38,-1088 210.38,-1076 210.38,-1076 210.38,-1070 216.38,-1064 222.38,-1064 222.38,-1064 252.38,-1064 252.38,-1064 258.38,-1064 264.38,-1070 264.38,-1076 264.38,-1076 264.38,-1088 264.38,-1088 264.38,-1094 258.38,-1100 252.38,-1100"/>
<text xml:space="preserve" text-anchor="middle" x="237.38" y="-1078.5" font-family="Arial" font-size="10.00">Run lint</text>
</g>
<!-- lint_cfg&#45;&gt;lint -->
<g id="edge12" class="edge">
<title>lint_cfg&#45;&gt;lint</title>
<path fill="none" stroke="black" d="M220.12,-1174.1C220.12,-1174.1 220.12,-1111.86 220.12,-1111.86"/>
<polygon fill="black" stroke="black" points="223.63,-1111.86 220.13,-1101.86 216.63,-1111.86 223.63,-1111.86"/>
<text xml:space="preserve" text-anchor="middle" x="216.88" y="-1119.95" font-family="Arial" font-size="9.00">Yes</text>
</g>
<!-- static_cfg -->
<g id="node13" class="node">
<title>static_cfg</title>
<path fill="none" stroke="black" d="M147.22,-930.57C147.22,-930.57 89.03,-907.43 89.03,-907.43 83.45,-905.22 83.45,-900.78 89.03,-898.57 89.03,-898.57 147.22,-875.43 147.22,-875.43 152.8,-873.22 163.95,-873.22 169.53,-875.43 169.53,-875.43 227.72,-898.57 227.72,-898.57 233.3,-900.78 233.3,-905.22 227.72,-907.43 227.72,-907.43 169.53,-930.57 169.53,-930.57 163.95,-932.78 152.8,-932.78 147.22,-930.57"/>
<text xml:space="preserve" text-anchor="middle" x="158.38" y="-905.5" font-family="Arial" font-size="10.00">Static analysis</text>
<text xml:space="preserve" text-anchor="middle" x="158.38" y="-893.5" font-family="Arial" font-size="10.00">configured?</text>
</g>
<!-- lint_cfg&#45;&gt;static_cfg -->
<g id="edge17" class="edge">
<title>lint_cfg&#45;&gt;static_cfg</title>
<path fill="none" stroke="black" d="M127.22,-1156.42C127.22,-1156.42 127.22,-934.45 127.22,-934.45"/>
<polygon fill="black" stroke="black" points="130.72,-934.45 127.22,-924.45 123.72,-934.45 130.72,-934.45"/>
<text xml:space="preserve" text-anchor="middle" x="154.38" y="-1037.45" font-family="Arial" font-size="9.00">No</text>
</g>
<!-- lint_ok -->
<g id="node11" class="node">
<title>lint_ok</title>
<path fill="none" stroke="black" d="M225.87,-1014.09C225.87,-1014.09 188.08,-1002.91 188.08,-1002.91 182.32,-1001.2 182.32,-997.8 188.08,-996.09 188.08,-996.09 225.87,-984.91 225.87,-984.91 231.62,-983.2 243.13,-983.2 248.88,-984.91 248.88,-984.91 286.67,-996.09 286.67,-996.09 292.43,-997.8 292.43,-1001.2 286.67,-1002.91 286.67,-1002.91 248.88,-1014.09 248.88,-1014.09 243.13,-1015.8 231.62,-1015.8 225.87,-1014.09"/>
<text xml:space="preserve" text-anchor="middle" x="237.38" y="-996" font-family="Arial" font-size="10.00">Lint passes?</text>
</g>
<!-- lint&#45;&gt;lint_ok -->
<g id="edge13" class="edge">
<title>lint&#45;&gt;lint_ok</title>
<path fill="none" stroke="black" d="M237.38,-1063.69C237.38,-1063.69 237.38,-1029.27 237.38,-1029.27"/>
<polygon fill="black" stroke="black" points="240.88,-1029.27 237.38,-1019.27 233.88,-1029.27 240.88,-1029.27"/>
</g>
<!-- fix_lint -->
<g id="node12" class="node">
<title>fix_lint</title>
<path fill="none" stroke="black" d="M353.25,-921C353.25,-921 285.5,-921 285.5,-921 279.5,-921 273.5,-915 273.5,-909 273.5,-909 273.5,-897 273.5,-897 273.5,-891 279.5,-885 285.5,-885 285.5,-885 353.25,-885 353.25,-885 359.25,-885 365.25,-891 365.25,-897 365.25,-897 365.25,-909 365.25,-909 365.25,-915 359.25,-921 353.25,-921"/>
<text xml:space="preserve" text-anchor="middle" x="319.38" y="-905.5" font-family="Arial" font-size="10.00">Fix lint errors and</text>
<text xml:space="preserve" text-anchor="middle" x="319.38" y="-893.5" font-family="Arial" font-size="10.00">re&#45;run lint</text>
</g>
<!-- lint_ok&#45;&gt;fix_lint -->
<g id="edge14" class="edge">
<title>lint_ok&#45;&gt;fix_lint</title>
<path fill="none" stroke="black" d="M285.84,-995.35C285.84,-995.35 285.84,-933.01 285.84,-933.01"/>
<polygon fill="black" stroke="black" points="289.34,-933.01 285.84,-923.01 282.34,-933.01 289.34,-933.01"/>
<text xml:space="preserve" text-anchor="middle" x="266.38" y="-954.95" font-family="Arial" font-size="9.00">No</text>
</g>
<!-- lint_ok&#45;&gt;static_cfg -->
<g id="edge16" class="edge">
<title>lint_ok&#45;&gt;static_cfg</title>
<path fill="none" stroke="black" d="M207.72,-989.89C207.72,-989.89 207.72,-927.42 207.72,-927.42"/>
<polygon fill="black" stroke="black" points="211.22,-927.42 207.72,-917.42 204.22,-927.42 211.22,-927.42"/>
<text xml:space="preserve" text-anchor="middle" x="220.88" y="-954.95" font-family="Arial" font-size="9.00">Yes</text>
</g>
<!-- fix_lint&#45;&gt;lint -->
<g id="edge15" class="edge">
<title>fix_lint&#45;&gt;lint</title>
<path fill="none" stroke="black" d="M331.72,-921.48C331.72,-967.22 331.72,-1082 331.72,-1082 331.72,-1082 276.18,-1082 276.18,-1082"/>
<polygon fill="black" stroke="black" points="276.18,-1078.5 266.18,-1082 276.18,-1085.5 276.18,-1078.5"/>
</g>
<!-- static_run -->
<g id="node14" class="node">
<title>static_run</title>
<path fill="none" stroke="black" d="M290.38,-824.5C290.38,-824.5 214.38,-824.5 214.38,-824.5 208.38,-824.5 202.38,-818.5 202.38,-812.5 202.38,-812.5 202.38,-800.5 202.38,-800.5 202.38,-794.5 208.38,-788.5 214.38,-788.5 214.38,-788.5 290.38,-788.5 290.38,-788.5 296.38,-788.5 302.38,-794.5 302.38,-800.5 302.38,-800.5 302.38,-812.5 302.38,-812.5 302.38,-818.5 296.38,-824.5 290.38,-824.5"/>
<text xml:space="preserve" text-anchor="middle" x="252.38" y="-803" font-family="Arial" font-size="10.00">Run static analysis</text>
</g>
<!-- static_cfg&#45;&gt;static_run -->
<g id="edge18" class="edge">
<title>static_cfg&#45;&gt;static_run</title>
<path fill="none" stroke="black" d="M220.62,-895.43C220.62,-895.43 220.62,-836.26 220.62,-836.26"/>
<polygon fill="black" stroke="black" points="224.13,-836.26 220.63,-826.26 217.13,-836.26 224.13,-836.26"/>
<text xml:space="preserve" text-anchor="middle" x="228.88" y="-844.45" font-family="Arial" font-size="9.00">Yes</text>
</g>
<!-- ready -->
<g id="node17" class="node">
<title>ready</title>
<path fill="none" stroke="black" d="M175.48,-626.47C175.48,-626.47 128.02,-604.53 128.02,-604.53 122.57,-602.02 122.57,-596.98 128.02,-594.47 128.02,-594.47 175.48,-572.53 175.48,-572.53 180.93,-570.02 191.82,-570.02 197.27,-572.53 197.27,-572.53 244.73,-594.47 244.73,-594.47 250.18,-596.98 250.18,-602.02 244.73,-604.53 244.73,-604.53 197.27,-626.47 197.27,-626.47 191.82,-628.98 180.93,-628.98 175.48,-626.47"/>
<text xml:space="preserve" text-anchor="middle" x="186.38" y="-602" font-family="Arial" font-size="10.00">All required</text>
<text xml:space="preserve" text-anchor="middle" x="186.38" y="-590" font-family="Arial" font-size="10.00">gates pass?</text>
</g>
<!-- static_cfg&#45;&gt;ready -->
<g id="edge23" class="edge">
<title>static_cfg&#45;&gt;ready</title>
<path fill="none" stroke="black" d="M144.5,-876.07C144.5,-876.07 144.5,-623.93 144.5,-623.93"/>
<polygon fill="black" stroke="black" points="148,-623.93 144.5,-613.93 141,-623.93 148,-623.93"/>
<text xml:space="preserve" text-anchor="middle" x="149.38" y="-761.95" font-family="Arial" font-size="9.00">No</text>
</g>
<!-- static_ok -->
<g id="node15" class="node">
<title>static_ok</title>
<path fill="none" stroke="black" d="M241.22,-737.57C241.22,-737.57 183.03,-714.43 183.03,-714.43 177.45,-712.22 177.45,-707.78 183.03,-705.57 183.03,-705.57 241.22,-682.43 241.22,-682.43 246.8,-680.22 257.95,-680.22 263.53,-682.43 263.53,-682.43 321.72,-705.57 321.72,-705.57 327.3,-707.78 327.3,-712.22 321.72,-714.43 321.72,-714.43 263.53,-737.57 263.53,-737.57 257.95,-739.78 246.8,-739.78 241.22,-737.57"/>
<text xml:space="preserve" text-anchor="middle" x="252.38" y="-712.5" font-family="Arial" font-size="10.00">Static analysis</text>
<text xml:space="preserve" text-anchor="middle" x="252.38" y="-700.5" font-family="Arial" font-size="10.00">passes?</text>
</g>
<!-- static_run&#45;&gt;static_ok -->
<g id="edge19" class="edge">
<title>static_run&#45;&gt;static_ok</title>
<path fill="none" stroke="black" d="M252.38,-788.35C252.38,-788.35 252.38,-754.04 252.38,-754.04"/>
<polygon fill="black" stroke="black" points="255.88,-754.04 252.38,-744.04 248.88,-754.04 255.88,-754.04"/>
</g>
<!-- fix_static -->
<g id="node16" class="node">
<title>fix_static</title>
<path fill="none" stroke="black" d="M368.75,-617.5C368.75,-617.5 286,-617.5 286,-617.5 280,-617.5 274,-611.5 274,-605.5 274,-605.5 274,-593.5 274,-593.5 274,-587.5 280,-581.5 286,-581.5 286,-581.5 368.75,-581.5 368.75,-581.5 374.75,-581.5 380.75,-587.5 380.75,-593.5 380.75,-593.5 380.75,-605.5 380.75,-605.5 380.75,-611.5 374.75,-617.5 368.75,-617.5"/>
<text xml:space="preserve" text-anchor="middle" x="327.38" y="-602" font-family="Arial" font-size="10.00">Fix violations and</text>
<text xml:space="preserve" text-anchor="middle" x="327.38" y="-590" font-family="Arial" font-size="10.00">re&#45;run static analysis</text>
</g>
<!-- static_ok&#45;&gt;fix_static -->
<g id="edge20" class="edge">
<title>static_ok&#45;&gt;fix_static</title>
<path fill="none" stroke="black" d="M303.44,-698.17C303.44,-698.17 303.44,-629.33 303.44,-629.33"/>
<polygon fill="black" stroke="black" points="306.94,-629.33 303.44,-619.33 299.94,-629.33 306.94,-629.33"/>
<text xml:space="preserve" text-anchor="middle" x="295.38" y="-651.45" font-family="Arial" font-size="9.00">No</text>
</g>
<!-- static_ok&#45;&gt;ready -->
<g id="edge22" class="edge">
<title>static_ok&#45;&gt;ready</title>
<path fill="none" stroke="black" d="M213.75,-693.22C213.75,-693.22 213.75,-630.57 213.75,-630.57"/>
<polygon fill="black" stroke="black" points="217.25,-630.57 213.75,-620.57 210.25,-630.57 217.25,-630.57"/>
<text xml:space="preserve" text-anchor="middle" x="211.88" y="-651.45" font-family="Arial" font-size="9.00">Yes</text>
</g>
<!-- fix_static&#45;&gt;static_run -->
<g id="edge21" class="edge">
<title>fix_static&#45;&gt;static_run</title>
<path fill="none" stroke="black" d="M349.06,-617.91C349.06,-668.7 349.06,-807 349.06,-807 349.06,-807 314.21,-807 314.21,-807"/>
<polygon fill="black" stroke="black" points="314.21,-803.5 304.21,-807 314.21,-810.5 314.21,-803.5"/>
</g>
<!-- not_ready -->
<g id="node18" class="node">
<title>not_ready</title>
<path fill="none" stroke="black" d="M385,-521C385,-521 333.75,-521 333.75,-521 327.75,-521 321.75,-515 321.75,-509 321.75,-509 321.75,-497 321.75,-497 321.75,-491 327.75,-485 333.75,-485 333.75,-485 385,-485 385,-485 391,-485 397,-491 397,-497 397,-497 397,-509 397,-509 397,-515 391,-521 385,-521"/>
<text xml:space="preserve" text-anchor="middle" x="359.38" y="-505.5" font-family="Arial" font-size="10.00">NOT READY</text>
<text xml:space="preserve" text-anchor="middle" x="359.38" y="-493.5" font-family="Arial" font-size="10.00">List blockers</text>
</g>
<!-- ready&#45;&gt;not_ready -->
<g id="edge24" class="edge">
<title>ready&#45;&gt;not_ready</title>
<path fill="none" stroke="black" d="M203.71,-575C246.04,-575 351.25,-575 351.25,-575 351.25,-575 351.25,-532.68 351.25,-532.68"/>
<polygon fill="black" stroke="black" points="354.75,-532.68 351.25,-522.68 347.75,-532.68 354.75,-532.68"/>
<text xml:space="preserve" text-anchor="middle" x="309.38" y="-540.95" font-family="Arial" font-size="9.00">No</text>
</g>
<!-- commit -->
<g id="node19" class="node">
<title>commit</title>
<path fill="none" stroke="black" d="M241.62,-521C241.62,-521 131.12,-521 131.12,-521 125.12,-521 119.12,-515 119.12,-509 119.12,-509 119.12,-497 119.12,-497 119.12,-491 125.12,-485 131.12,-485 131.12,-485 241.62,-485 241.62,-485 247.62,-485 253.62,-491 253.62,-497 253.62,-497 253.62,-509 253.62,-509 253.62,-515 247.62,-521 241.62,-521"/>
<text xml:space="preserve" text-anchor="middle" x="186.38" y="-505.5" font-family="Arial" font-size="10.00">Commit one logical change</text>
<text xml:space="preserve" text-anchor="middle" x="186.38" y="-493.5" font-family="Arial" font-size="10.00">with conventional message</text>
</g>
<!-- ready&#45;&gt;commit -->
<g id="edge26" class="edge">
<title>ready&#45;&gt;commit</title>
<path fill="none" stroke="black" d="M186.38,-567.1C186.38,-567.1 186.38,-532.9 186.38,-532.9"/>
<polygon fill="black" stroke="black" points="189.88,-532.9 186.38,-522.9 182.88,-532.9 189.88,-532.9"/>
<text xml:space="preserve" text-anchor="middle" x="193.88" y="-540.95" font-family="Arial" font-size="9.00">Yes</text>
</g>
<!-- not_ready&#45;&gt;unit -->
<g id="edge25" class="edge">
<title>not_ready&#45;&gt;unit</title>
<path fill="none" stroke="black" d="M386.44,-521.05C386.44,-521.05 386.44,-1593.62 386.44,-1593.62"/>
<polygon fill="black" stroke="black" points="382.94,-1593.62 386.44,-1603.62 389.94,-1593.62 382.94,-1593.62"/>
</g>
<!-- pre_push -->
<g id="node20" class="node">
<title>pre_push</title>
<path fill="none" stroke="black" d="M232.25,-448C232.25,-448 140.5,-448 140.5,-448 134.5,-448 128.5,-442 128.5,-436 128.5,-436 128.5,-424 128.5,-424 128.5,-418 134.5,-412 140.5,-412 140.5,-412 232.25,-412 232.25,-412 238.25,-412 244.25,-418 244.25,-424 244.25,-424 244.25,-436 244.25,-436 244.25,-442 238.25,-448 232.25,-448"/>
<text xml:space="preserve" text-anchor="middle" x="186.38" y="-432.5" font-family="Arial" font-size="10.00">Before push: run unit +</text>
<text xml:space="preserve" text-anchor="middle" x="186.38" y="-420.5" font-family="Arial" font-size="10.00">integration tests</text>
</g>
<!-- commit&#45;&gt;pre_push -->
<g id="edge27" class="edge">
<title>commit&#45;&gt;pre_push</title>
<path fill="none" stroke="black" d="M186.38,-484.58C186.38,-484.58 186.38,-459.93 186.38,-459.93"/>
<polygon fill="black" stroke="black" points="189.88,-459.93 186.38,-449.93 182.88,-459.93 189.88,-459.93"/>
</g>
<!-- integration_ok -->
<g id="node21" class="node">
<title>integration_ok</title>
<path fill="none" stroke="black" d="M118.12,-370.84C118.12,-370.84 54.13,-347.16 54.13,-347.16 48.5,-345.08 48.5,-340.92 54.13,-338.84 54.13,-338.84 118.12,-315.16 118.12,-315.16 123.75,-313.08 135,-313.08 140.63,-315.16 140.63,-315.16 204.62,-338.84 204.62,-338.84 210.25,-340.92 210.25,-345.08 204.62,-347.16 204.62,-347.16 140.63,-370.84 140.63,-370.84 135,-372.92 123.75,-372.92 118.12,-370.84"/>
<text xml:space="preserve" text-anchor="middle" x="129.38" y="-345.5" font-family="Arial" font-size="10.00">Integration tests</text>
<text xml:space="preserve" text-anchor="middle" x="129.38" y="-333.5" font-family="Arial" font-size="10.00">pass?</text>
</g>
<!-- pre_push&#45;&gt;integration_ok -->
<g id="edge28" class="edge">
<title>pre_push&#45;&gt;integration_ok</title>
<path fill="none" stroke="black" d="M172.19,-411.55C172.19,-411.55 172.19,-371.17 172.19,-371.17"/>
<polygon fill="black" stroke="black" points="175.69,-371.17 172.19,-361.17 168.69,-371.17 175.69,-371.17"/>
</g>
<!-- fix_integration -->
<g id="node22" class="node">
<title>fix_integration</title>
<path fill="none" stroke="black" d="M279.88,-264.5C279.88,-264.5 194.88,-264.5 194.88,-264.5 188.88,-264.5 182.88,-258.5 182.88,-252.5 182.88,-252.5 182.88,-240.5 182.88,-240.5 182.88,-234.5 188.88,-228.5 194.88,-228.5 194.88,-228.5 279.88,-228.5 279.88,-228.5 285.88,-228.5 291.88,-234.5 291.88,-240.5 291.88,-240.5 291.88,-252.5 291.88,-252.5 291.88,-258.5 285.88,-264.5 279.88,-264.5"/>
<text xml:space="preserve" text-anchor="middle" x="237.38" y="-249" font-family="Arial" font-size="10.00">Fix integration issues</text>
<text xml:space="preserve" text-anchor="middle" x="237.38" y="-237" font-family="Arial" font-size="10.00">and re&#45;run tests</text>
</g>
<!-- integration_ok&#45;&gt;fix_integration -->
<g id="edge29" class="edge">
<title>integration_ok&#45;&gt;fix_integration</title>
<path fill="none" stroke="black" d="M199.38,-336.37C199.38,-336.37 199.38,-276.34 199.38,-276.34"/>
<polygon fill="black" stroke="black" points="202.88,-276.34 199.38,-266.34 195.88,-276.34 202.88,-276.34"/>
<text xml:space="preserve" text-anchor="middle" x="198.38" y="-284.45" font-family="Arial" font-size="9.00">No</text>
</g>
<!-- push -->
<g id="node23" class="node">
<title>push</title>
<path fill="none" stroke="black" d="M144.38,-264.5C144.38,-264.5 114.38,-264.5 114.38,-264.5 108.38,-264.5 102.38,-258.5 102.38,-252.5 102.38,-252.5 102.38,-240.5 102.38,-240.5 102.38,-234.5 108.38,-228.5 114.38,-228.5 114.38,-228.5 144.38,-228.5 144.38,-228.5 150.38,-228.5 156.38,-234.5 156.38,-240.5 156.38,-240.5 156.38,-252.5 156.38,-252.5 156.38,-258.5 150.38,-264.5 144.38,-264.5"/>
<text xml:space="preserve" text-anchor="middle" x="129.38" y="-243" font-family="Arial" font-size="10.00">Push</text>
</g>
<!-- integration_ok&#45;&gt;push -->
<g id="edge31" class="edge">
<title>integration_ok&#45;&gt;push</title>
<path fill="none" stroke="black" d="M129.38,-310.6C129.38,-310.6 129.38,-276.4 129.38,-276.4"/>
<polygon fill="black" stroke="black" points="132.88,-276.4 129.38,-266.4 125.88,-276.4 132.88,-276.4"/>
<text xml:space="preserve" text-anchor="middle" x="136.88" y="-284.45" font-family="Arial" font-size="9.00">Yes</text>
</g>
<!-- fix_integration&#45;&gt;pre_push -->
<g id="edge30" class="edge">
<title>fix_integration&#45;&gt;pre_push</title>
<path fill="none" stroke="black" d="M230.06,-264.77C230.06,-264.77 230.06,-400.02 230.06,-400.02"/>
<polygon fill="black" stroke="black" points="226.56,-400.02 230.06,-410.02 233.56,-400.02 226.56,-400.02"/>
</g>
<!-- ci -->
<g id="node24" class="node">
<title>ci</title>
<path fill="none" stroke="black" d="M142.75,-191.5C142.75,-191.5 12,-191.5 12,-191.5 6,-191.5 0,-185.5 0,-179.5 0,-179.5 0,-167.5 0,-167.5 0,-161.5 6,-155.5 12,-155.5 12,-155.5 142.75,-155.5 142.75,-155.5 148.75,-155.5 154.75,-161.5 154.75,-167.5 154.75,-167.5 154.75,-179.5 154.75,-179.5 154.75,-185.5 148.75,-191.5 142.75,-191.5"/>
<text xml:space="preserve" text-anchor="middle" x="77.38" y="-170" font-family="Arial" font-size="10.00">CI runs unit + integration + E2E</text>
</g>
<!-- push&#45;&gt;ci -->
<g id="edge32" class="edge">
<title>push&#45;&gt;ci</title>
<path fill="none" stroke="black" d="M128.56,-228.08C128.56,-228.08 128.56,-203.43 128.56,-203.43"/>
<polygon fill="black" stroke="black" points="132.06,-203.43 128.56,-193.43 125.06,-203.43 132.06,-203.43"/>
</g>
<!-- ci_ok -->
<g id="node25" class="node">
<title>ci_ok</title>
<path fill="none" stroke="black" d="M73.94,-114.85C73.94,-114.85 40.47,-104.15 40.47,-104.15 34.75,-102.33 34.75,-98.67 40.47,-96.85 40.47,-96.85 73.94,-86.15 73.94,-86.15 79.66,-84.33 91.09,-84.33 96.81,-86.15 96.81,-86.15 130.28,-96.85 130.28,-96.85 136,-98.67 136,-102.33 130.28,-104.15 130.28,-104.15 96.81,-114.85 96.81,-114.85 91.09,-116.67 79.66,-116.67 73.94,-114.85"/>
<text xml:space="preserve" text-anchor="middle" x="85.38" y="-97" font-family="Arial" font-size="10.00">CI passes?</text>
</g>
<!-- ci&#45;&gt;ci_ok -->
<g id="edge33" class="edge">
<title>ci&#45;&gt;ci_ok</title>
<path fill="none" stroke="black" d="M85.38,-155.08C85.38,-155.08 85.38,-130.43 85.38,-130.43"/>
<polygon fill="black" stroke="black" points="88.88,-130.43 85.38,-120.43 81.88,-130.43 88.88,-130.43"/>
</g>
<!-- fix_ci -->
<g id="node26" class="node">
<title>fix_ci</title>
<path fill="none" stroke="black" d="M217.5,-36C217.5,-36 145.25,-36 145.25,-36 139.25,-36 133.25,-30 133.25,-24 133.25,-24 133.25,-12 133.25,-12 133.25,-6 139.25,0 145.25,0 145.25,0 217.5,0 217.5,0 223.5,0 229.5,-6 229.5,-12 229.5,-12 229.5,-24 229.5,-24 229.5,-30 223.5,-36 217.5,-36"/>
<text xml:space="preserve" text-anchor="middle" x="181.38" y="-20.5" font-family="Arial" font-size="10.00">Fix CI failures and</text>
<text xml:space="preserve" text-anchor="middle" x="181.38" y="-8.5" font-family="Arial" font-size="10.00">push follow&#45;up</text>
</g>
<!-- ci_ok&#45;&gt;fix_ci -->
<g id="edge34" class="edge">
<title>ci_ok&#45;&gt;fix_ci</title>
<path fill="none" stroke="black" d="M137.48,-98.78C137.48,-98.78 137.48,-47.7 137.48,-47.7"/>
<polygon fill="black" stroke="black" points="140.98,-47.7 137.48,-37.7 133.98,-47.7 140.98,-47.7"/>
<text xml:space="preserve" text-anchor="middle" x="146.38" y="-55.95" font-family="Arial" font-size="9.00">No</text>
</g>
<!-- done -->
<g id="node27" class="node">
<title>done</title>
<path fill="none" stroke="black" d="M100.38,-36C100.38,-36 70.38,-36 70.38,-36 64.38,-36 58.38,-30 58.38,-24 58.38,-24 58.38,-12 58.38,-12 58.38,-6 64.38,0 70.38,0 70.38,0 100.38,0 100.38,0 106.38,0 112.38,-6 112.38,-12 112.38,-12 112.38,-24 112.38,-24 112.38,-30 106.38,-36 100.38,-36"/>
<text xml:space="preserve" text-anchor="middle" x="85.38" y="-14.5" font-family="Arial" font-size="10.00">Done</text>
</g>
<!-- ci_ok&#45;&gt;done -->
<g id="edge36" class="edge">
<title>ci_ok&#45;&gt;done</title>
<path fill="none" stroke="black" d="M85.38,-82.19C85.38,-82.19 85.38,-47.77 85.38,-47.77"/>
<polygon fill="black" stroke="black" points="88.88,-47.77 85.38,-37.77 81.88,-47.77 88.88,-47.77"/>
<text xml:space="preserve" text-anchor="middle" x="92.88" y="-55.95" font-family="Arial" font-size="9.00">Yes</text>
</g>
<!-- fix_ci&#45;&gt;push -->
<g id="edge35" class="edge">
<title>fix_ci&#45;&gt;push</title>
<path fill="none" stroke="black" d="M169.62,-36.35C169.62,-90.69 169.62,-247 169.62,-247 169.62,-247 167.96,-247 167.96,-247"/>
<polygon fill="black" stroke="black" points="167.96,-243.5 157.96,-247 167.96,-250.5 167.96,-243.5"/>
</g>
</g>
</svg>
