<?xml version="1.0" encoding="UTF-8" standalone="no"?>
<!DOCTYPE svg PUBLIC "-//W3C//DTD SVG 1.1//EN"
 "http://www.w3.org/Graphics/SVG/1.1/DTD/svg11.dtd">
<!-- Generated by graphviz version 14.1.2 (20260124.0452)
 -->
<!-- Title: TDDWorkflow Pages: 1 -->
<svg width="352pt" height="1198pt"
 viewBox="0.00 0.00 352.00 1198.00" xmlns="http://www.w3.org/2000/svg" xmlns:xlink="http://www.w3.org/1999/xlink">
<g id="graph0" class="graph" transform="scale(1 1) rotate(0) translate(4 1193.5)">
<title>TDDWorkflow</title>
<polygon fill="white" stroke="none" points="-4,4 -4,-1193.5 348.12,-1193.5 348.12,4 -4,4"/>
<!-- start -->
<g id="node1" class="node">
<title>start</title>
<path fill="none" stroke="black" d="M272.88,-1189.5C272.88,-1189.5 210.38,-1189.5 210.38,-1189.5 204.38,-1189.5 198.38,-1183.5 198.38,-1177.5 198.38,-1177.5 198.38,-1165.5 198.38,-1165.5 198.38,-1159.5 204.38,-1153.5 210.38,-1153.5 210.38,-1153.5 272.88,-1153.5 272.88,-1153.5 278.88,-1153.5 284.88,-1159.5 284.88,-1165.5 284.88,-1165.5 284.88,-1177.5 284.88,-1177.5 284.88,-1183.5 278.88,-1189.5 272.88,-1189.5"/>
<text xml:space="preserve" text-anchor="middle" x="241.62" y="-1168" font-family="Arial" font-size="10.00">Start TDD cycle</text>
</g>
<!-- scope -->
<g id="node2" class="node">
<title>scope</title>
<path fill="none" stroke="black" d="M280.75,-1116.5C280.75,-1116.5 202.5,-1116.5 202.5,-1116.5 196.5,-1116.5 190.5,-1110.5 190.5,-1104.5 190.5,-1104.5 190.5,-1092.5 190.5,-1092.5 190.5,-1086.5 196.5,-1080.5 202.5,-1080.5 202.5,-1080.5 280.75,-1080.5 280.75,-1080.5 286.75,-1080.5 292.75,-1086.5 292.75,-1092.5 292.75,-1092.5 292.75,-1104.5 292.75,-1104.5 292.75,-1110.5 286.75,-1116.5 280.75,-1116.5"/>
<text xml:space="preserve" text-anchor="middle" x="241.62" y="-1101" font-family="Arial" font-size="10.00">Select one behavior</text>
<text xml:space="preserve" text-anchor="middle" x="241.62" y="-1089" font-family="Arial" font-size="10.00">for this cycle</text>
</g>
<!-- start&#45;&gt;scope -->
<g id="edge1" class="edge">
<title>start&#45;&gt;scope</title>
<path fill="none" stroke="black" d="M241.62,-1153.08C241.62,-1153.08 241.62,-1128.43 241.62,-1128.43"/>
<polygon fill="black" stroke="black" points="245.13,-1128.43 241.63,-1118.43 238.13,-1128.43 245.13,-1128.43"/>
</g>
<!-- write_test -->
<g id="node3" class="node">
<title>write_test</title>
<path fill="none" stroke="black" d="M206.5,-1043.5C206.5,-1043.5 138.75,-1043.5 138.75,-1043.5 132.75,-1043.5 126.75,-1037.5 126.75,-1031.5 126.75,-1031.5 126.75,-1019.5 126.75,-1019.5 126.75,-1013.5 132.75,-1007.5 138.75,-1007.5 138.75,-1007.5 206.5,-1007.5 206.5,-1007.5 212.5,-1007.5 218.5,-1013.5 218.5,-1019.5 218.5,-1019.5 218.5,-1031.5 218.5,-1031.5 218.5,-1037.5 212.5,-1043.5 206.5,-1043.5"/>
<text xml:space="preserve" text-anchor="middle" x="172.62" y="-1028" font-family="Arial" font-size="10.00">Write exactly one</text>
<text xml:space="preserve" text-anchor="middle" x="172.62" y="-1016" font-family="Arial" font-size="10.00">failing test</text>
</g>
<!-- scope&#45;&gt;write_test -->
<g id="edge2" class="edge">
<title>scope&#45;&gt;write_test</title>
<path fill="none" stroke="black" d="M204.5,-1080.08C204.5,-1080.08 204.5,-1055.43 204.5,-1055.43"/>
<polygon fill="black" stroke="black" points="208,-1055.43 204.5,-1045.43 201,-1055.43 208,-1055.43"/>
</g>
<!-- single_test -->
<g id="node4" class="node">
<title>single_test</title>
<path fill="none" stroke="black" d="M161.57,-965.84C161.57,-965.84 107.68,-943.16 107.68,-943.16 102.15,-940.83 102.15,-936.17 107.68,-933.84 107.68,-933.84 161.57,-911.16 161.57,-911.16 167.1,-908.83 178.15,-908.83 183.68,-911.16 183.68,-911.16 237.57,-933.84 237.57,-933.84 243.1,-936.17 243.1,-940.83 237.57,-943.16 237.57,-943.16 183.68,-965.84 183.68,-965.84 178.15,-968.17 167.1,-968.17 161.57,-965.84"/>
<text xml:space="preserve" text-anchor="middle" x="172.62" y="-941" font-family="Arial" font-size="10.00">Only one new</text>
<text xml:space="preserve" text-anchor="middle" x="172.62" y="-929" font-family="Arial" font-size="10.00">failing test?</text>
</g>
<!-- write_test&#45;&gt;single_test -->
<g id="edge3" class="edge">
<title>write_test&#45;&gt;single_test</title>
<path fill="none" stroke="black" d="M172.62,-1007.05C172.62,-1007.05 172.62,-982.49 172.62,-982.49"/>
<polygon fill="black" stroke="black" points="176.13,-982.49 172.63,-972.49 169.13,-982.49 176.13,-982.49"/>
</g>
<!-- split_tests -->
<g id="node5" class="node">
<title>split_tests</title>
<path fill="none" stroke="black" d="M104.62,-860C104.62,-860 22.62,-860 22.62,-860 16.62,-860 10.62,-854 10.62,-848 10.62,-848 10.62,-836 10.62,-836 10.62,-830 16.62,-824 22.62,-824 22.62,-824 104.62,-824 104.62,-824 110.62,-824 116.62,-830 116.62,-836 116.62,-836 116.62,-848 116.62,-848 116.62,-854 110.62,-860 104.62,-860"/>
<text xml:space="preserve" text-anchor="middle" x="63.62" y="-844.5" font-family="Arial" font-size="10.00">Split tests; keep one</text>
<text xml:space="preserve" text-anchor="middle" x="63.62" y="-832.5" font-family="Arial" font-size="10.00">failing test in cycle</text>
</g>
<!-- single_test&#45;&gt;split_tests -->
<g id="edge4" class="edge">
<title>single_test&#45;&gt;split_tests</title>
<path fill="none" stroke="black" d="M106.62,-933.85C106.62,-933.85 106.62,-871.71 106.62,-871.71"/>
<polygon fill="black" stroke="black" points="110.13,-871.71 106.63,-861.71 103.13,-871.71 110.13,-871.71"/>
<text xml:space="preserve" text-anchor="middle" x="127.62" y="-879.95" font-family="Arial" font-size="9.00">No</text>
</g>
<!-- run_red -->
<g id="node6" class="node">
<title>run_red</title>
<path fill="none" stroke="black" d="M214.5,-860C214.5,-860 146.75,-860 146.75,-860 140.75,-860 134.75,-854 134.75,-848 134.75,-848 134.75,-836 134.75,-836 134.75,-830 140.75,-824 146.75,-824 146.75,-824 214.5,-824 214.5,-824 220.5,-824 226.5,-830 226.5,-836 226.5,-836 226.5,-848 226.5,-848 226.5,-854 220.5,-860 214.5,-860"/>
<text xml:space="preserve" text-anchor="middle" x="180.62" y="-844.5" font-family="Arial" font-size="10.00">Run targeted test</text>
<text xml:space="preserve" text-anchor="middle" x="180.62" y="-832.5" font-family="Arial" font-size="10.00">(verify RED)</text>
</g>
<!-- single_test&#45;&gt;run_red -->
<g id="edge6" class="edge">
<title>single_test&#45;&gt;run_red</title>
<path fill="none" stroke="black" d="M180.62,-909.55C180.62,-909.55 180.62,-871.81 180.62,-871.81"/>
<polygon fill="black" stroke="black" points="184.13,-871.81 180.63,-861.81 177.13,-871.81 184.13,-871.81"/>
<text xml:space="preserve" text-anchor="middle" x="182.12" y="-879.95" font-family="Arial" font-size="9.00">Yes</text>
</g>
<!-- split_tests&#45;&gt;write_test -->
<g id="edge5" class="edge">
<title>split_tests&#45;&gt;write_test</title>
<path fill="none" stroke="black" d="M53.62,-860.32C53.62,-906.86 53.62,-1026 53.62,-1026 53.62,-1026 114.76,-1026 114.76,-1026"/>
<polygon fill="black" stroke="black" points="114.76,-1029.5 124.76,-1026 114.76,-1022.5 114.76,-1029.5"/>
</g>
<!-- red_expected -->
<g id="node7" class="node">
<title>red_expected</title>
<path fill="none" stroke="black" d="M169.27,-783.13C169.27,-783.13 97.98,-758.87 97.98,-758.87 92.3,-756.93 92.3,-753.07 97.98,-751.13 97.98,-751.13 169.27,-726.87 169.27,-726.87 174.95,-724.93 186.3,-724.93 191.98,-726.87 191.98,-726.87 263.27,-751.13 263.27,-751.13 268.95,-753.07 268.95,-756.93 263.27,-758.87 263.27,-758.87 191.98,-783.13 191.98,-783.13 186.3,-785.07 174.95,-785.07 169.27,-783.13"/>
<text xml:space="preserve" text-anchor="middle" x="180.62" y="-757.5" font-family="Arial" font-size="10.00">Fails for expected</text>
<text xml:space="preserve" text-anchor="middle" x="180.62" y="-745.5" font-family="Arial" font-size="10.00">behavior gap?</text>
</g>
<!-- run_red&#45;&gt;red_expected -->
<g id="edge7" class="edge">
<title>run_red&#45;&gt;red_expected</title>
<path fill="none" stroke="black" d="M195.92,-823.55C195.92,-823.55 195.92,-793.53 195.92,-793.53"/>
<polygon fill="black" stroke="black" points="199.42,-793.53 195.92,-783.53 192.42,-793.53 199.42,-793.53"/>
</g>
<!-- fix_test -->
<g id="node8" class="node">
<title>fix_test</title>
<path fill="none" stroke="black" d="M105.25,-676.5C105.25,-676.5 12,-676.5 12,-676.5 6,-676.5 0,-670.5 0,-664.5 0,-664.5 0,-652.5 0,-652.5 0,-646.5 6,-640.5 12,-640.5 12,-640.5 105.25,-640.5 105.25,-640.5 111.25,-640.5 117.25,-646.5 117.25,-652.5 117.25,-652.5 117.25,-664.5 117.25,-664.5 117.25,-670.5 111.25,-676.5 105.25,-676.5"/>
<text xml:space="preserve" text-anchor="middle" x="58.62" y="-661" font-family="Arial" font-size="10.00">Fix test setup, imports,</text>
<text xml:space="preserve" text-anchor="middle" x="58.62" y="-649" font-family="Arial" font-size="10.00">or assertions</text>
</g>
<!-- red_expected&#45;&gt;fix_test -->
<g id="edge8" class="edge">
<title>red_expected&#45;&gt;fix_test</title>
<path fill="none" stroke="black" d="M101.94,-749.54C101.94,-749.54 101.94,-688.17 101.94,-688.17"/>
<polygon fill="black" stroke="black" points="105.44,-688.17 101.94,-678.17 98.44,-688.17 105.44,-688.17"/>
<text xml:space="preserve" text-anchor="middle" x="124.62" y="-696.45" font-family="Arial" font-size="9.00">No</text>
</g>
<!-- green_code -->
<g id="node9" class="node">
<title>green_code</title>
<path fill="none" stroke="black" d="M221.88,-676.5C221.88,-676.5 147.38,-676.5 147.38,-676.5 141.38,-676.5 135.38,-670.5 135.38,-664.5 135.38,-664.5 135.38,-652.5 135.38,-652.5 135.38,-646.5 141.38,-640.5 147.38,-640.5 147.38,-640.5 221.88,-640.5 221.88,-640.5 227.88,-640.5 233.88,-646.5 233.88,-652.5 233.88,-652.5 233.88,-664.5 233.88,-664.5 233.88,-670.5 227.88,-676.5 221.88,-676.5"/>
<text xml:space="preserve" text-anchor="middle" x="184.62" y="-661" font-family="Arial" font-size="10.00">Implement minimal</text>
<text xml:space="preserve" text-anchor="middle" x="184.62" y="-649" font-family="Arial" font-size="10.00">production code</text>
</g>
<!-- red_expected&#45;&gt;green_code -->
<g id="edge10" class="edge">
<title>red_expected&#45;&gt;green_code</title>
<path fill="none" stroke="black" d="M184.62,-723.94C184.62,-723.94 184.62,-688.36 184.62,-688.36"/>
<polygon fill="black" stroke="black" points="188.13,-688.36 184.63,-678.36 181.13,-688.36 188.13,-688.36"/>
<text xml:space="preserve" text-anchor="middle" x="190.12" y="-696.45" font-family="Arial" font-size="9.00">Yes</text>
</g>
<!-- fix_test&#45;&gt;run_red -->
<g id="edge9" class="edge">
<title>fix_test&#45;&gt;run_red</title>
<path fill="none" stroke="black" d="M48.62,-676.88C48.62,-716.42 48.62,-806 48.62,-806 48.62,-806 165.33,-806 165.33,-806 165.33,-806 165.33,-812.06 165.33,-812.06"/>
<polygon fill="black" stroke="black" points="161.83,-812.06 165.33,-822.06 168.83,-812.06 161.83,-812.06"/>
</g>
<!-- run_green -->
<g id="node10" class="node">
<title>run_green</title>
<path fill="none" stroke="black" d="M214.12,-603.5C214.12,-603.5 153.12,-603.5 153.12,-603.5 147.12,-603.5 141.12,-597.5 141.12,-591.5 141.12,-591.5 141.12,-579.5 141.12,-579.5 141.12,-573.5 147.12,-567.5 153.12,-567.5 153.12,-567.5 214.12,-567.5 214.12,-567.5 220.12,-567.5 226.12,-573.5 226.12,-579.5 226.12,-579.5 226.12,-591.5 226.12,-591.5 226.12,-597.5 220.12,-603.5 214.12,-603.5"/>
<text xml:space="preserve" text-anchor="middle" x="183.62" y="-588" font-family="Arial" font-size="10.00">Run unit tests</text>
<text xml:space="preserve" text-anchor="middle" x="183.62" y="-576" font-family="Arial" font-size="10.00">(verify GREEN)</text>
</g>
<!-- green_code&#45;&gt;run_green -->
<g id="edge11" class="edge">
<title>green_code&#45;&gt;run_green</title>
<path fill="none" stroke="black" d="M183.62,-640.08C183.62,-640.08 183.62,-615.43 183.62,-615.43"/>
<polygon fill="black" stroke="black" points="187.13,-615.43 183.63,-605.43 180.13,-615.43 187.13,-615.43"/>
</g>
<!-- green_ok -->
<g id="node11" class="node">
<title>green_ok</title>
<path fill="none" stroke="black" d="M171.89,-528.02C171.89,-528.02 110.32,-514.98 110.32,-514.98 104.45,-513.74 104.45,-511.26 110.32,-510.02 110.32,-510.02 171.89,-496.98 171.89,-496.98 177.76,-495.74 189.49,-495.74 195.36,-496.98 195.36,-496.98 256.93,-510.02 256.93,-510.02 262.8,-511.26 262.8,-513.74 256.93,-514.98 256.93,-514.98 195.36,-528.02 195.36,-528.02 189.49,-529.26 177.76,-529.26 171.89,-528.02"/>
<text xml:space="preserve" text-anchor="middle" x="183.62" y="-509" font-family="Arial" font-size="10.00">All unit tests pass?</text>
</g>
<!-- run_green&#45;&gt;green_ok -->
<g id="edge12" class="edge">
<title>run_green&#45;&gt;green_ok</title>
<path fill="none" stroke="black" d="M183.62,-567.08C183.62,-567.08 183.62,-542.43 183.62,-542.43"/>
<polygon fill="black" stroke="black" points="187.13,-542.43 183.63,-532.43 180.13,-542.43 187.13,-542.43"/>
</g>
<!-- fix_green -->
<g id="node12" class="node">
<title>fix_green</title>
<path fill="none" stroke="black" d="M103.5,-448C103.5,-448 35.75,-448 35.75,-448 29.75,-448 23.75,-442 23.75,-436 23.75,-436 23.75,-424 23.75,-424 23.75,-418 29.75,-412 35.75,-412 35.75,-412 103.5,-412 103.5,-412 109.5,-412 115.5,-418 115.5,-424 115.5,-424 115.5,-436 115.5,-436 115.5,-442 109.5,-448 103.5,-448"/>
<text xml:space="preserve" text-anchor="middle" x="69.62" y="-432.5" font-family="Arial" font-size="10.00">Fix code/test and</text>
<text xml:space="preserve" text-anchor="middle" x="69.62" y="-420.5" font-family="Arial" font-size="10.00">re&#45;run unit tests</text>
</g>
<!-- green_ok&#45;&gt;fix_green -->
<g id="edge13" class="edge">
<title>green_ok&#45;&gt;fix_green</title>
<path fill="none" stroke="black" d="M107.04,-510.46C107.04,-510.46 107.04,-459.8 107.04,-459.8"/>
<polygon fill="black" stroke="black" points="110.54,-459.8 107.04,-449.8 103.54,-459.8 110.54,-459.8"/>
<text xml:space="preserve" text-anchor="middle" x="132.62" y="-467.95" font-family="Arial" font-size="9.00">No</text>
</g>
<!-- refactor -->
<g id="node13" class="node">
<title>refactor</title>
<path fill="none" stroke="black" d="M228,-448C228,-448 145.25,-448 145.25,-448 139.25,-448 133.25,-442 133.25,-436 133.25,-436 133.25,-424 133.25,-424 133.25,-418 139.25,-412 145.25,-412 145.25,-412 228,-412 228,-412 234,-412 240,-418 240,-424 240,-424 240,-436 240,-436 240,-442 234,-448 228,-448"/>
<text xml:space="preserve" text-anchor="middle" x="186.62" y="-432.5" font-family="Arial" font-size="10.00">Refactor one step</text>
<text xml:space="preserve" text-anchor="middle" x="186.62" y="-420.5" font-family="Arial" font-size="10.00">(no behavior change)</text>
</g>
<!-- green_ok&#45;&gt;refactor -->
<g id="edge15" class="edge">
<title>green_ok&#45;&gt;refactor</title>
<path fill="none" stroke="black" d="M186.62,-495C186.62,-495 186.62,-459.84 186.62,-459.84"/>
<polygon fill="black" stroke="black" points="190.13,-459.84 186.63,-449.84 183.13,-459.84 190.13,-459.84"/>
<text xml:space="preserve" text-anchor="middle" x="193.12" y="-467.95" font-family="Arial" font-size="9.00">Yes</text>
</g>
<!-- fix_green&#45;&gt;run_green -->
<g id="edge14" class="edge">
<title>fix_green&#45;&gt;run_green</title>
<path fill="none" stroke="black" d="M61.17,-448.2C61.17,-489.35 61.17,-586 61.17,-586 61.17,-586 129.28,-586 129.28,-586"/>
<polygon fill="black" stroke="black" points="129.28,-589.5 139.28,-586 129.28,-582.5 129.28,-589.5"/>
</g>
<!-- run_refactor -->
<g id="node14" class="node">
<title>run_refactor</title>
<path fill="none" stroke="black" d="M204.38,-375C204.38,-375 150.88,-375 150.88,-375 144.88,-375 138.88,-369 138.88,-363 138.88,-363 138.88,-351 138.88,-351 138.88,-345 144.88,-339 150.88,-339 150.88,-339 204.38,-339 204.38,-339 210.38,-339 216.38,-345 216.38,-351 216.38,-351 216.38,-363 216.38,-363 216.38,-369 210.38,-375 204.38,-375"/>
<text xml:space="preserve" text-anchor="middle" x="177.62" y="-359.5" font-family="Arial" font-size="10.00">Run unit tests</text>
<text xml:space="preserve" text-anchor="middle" x="177.62" y="-347.5" font-family="Arial" font-size="10.00">after refactor</text>
</g>
<!-- refactor&#45;&gt;run_refactor -->
<g id="edge16" class="edge">
<title>refactor&#45;&gt;run_refactor</title>
<path fill="none" stroke="black" d="M177.62,-411.58C177.62,-411.58 177.62,-386.93 177.62,-386.93"/>
<polygon fill="black" stroke="black" points="181.13,-386.93 177.63,-376.93 174.13,-386.93 181.13,-386.93"/>
</g>
<!-- refactor_ok -->
<g id="node15" class="node">
<title>refactor_ok</title>
<path fill="none" stroke="black" d="M165.96,-299.17C165.96,-299.17 115.09,-286.83 115.09,-286.83 109.26,-285.41 109.26,-282.59 115.09,-281.17 115.09,-281.17 165.96,-268.83 165.96,-268.83 171.79,-267.41 183.46,-267.41 189.29,-268.83 189.29,-268.83 240.16,-281.17 240.16,-281.17 245.99,-282.59 245.99,-285.41 240.16,-286.83 240.16,-286.83 189.29,-299.17 189.29,-299.17 183.46,-300.59 171.79,-300.59 165.96,-299.17"/>
<text xml:space="preserve" text-anchor="middle" x="177.62" y="-280.5" font-family="Arial" font-size="10.00">Tests still pass?</text>
</g>
<!-- run_refactor&#45;&gt;refactor_ok -->
<g id="edge17" class="edge">
<title>run_refactor&#45;&gt;refactor_ok</title>
<path fill="none" stroke="black" d="M177.62,-338.58C177.62,-338.58 177.62,-313.93 177.62,-313.93"/>
<polygon fill="black" stroke="black" points="181.13,-313.93 177.63,-303.93 174.13,-313.93 181.13,-313.93"/>
</g>
<!-- fix_refactor -->
<g id="node16" class="node">
<title>fix_refactor</title>
<path fill="none" stroke="black" d="M109.88,-219.5C109.88,-219.5 29.38,-219.5 29.38,-219.5 23.38,-219.5 17.38,-213.5 17.38,-207.5 17.38,-207.5 17.38,-195.5 17.38,-195.5 17.38,-189.5 23.38,-183.5 29.38,-183.5 29.38,-183.5 109.88,-183.5 109.88,-183.5 115.88,-183.5 121.88,-189.5 121.88,-195.5 121.88,-195.5 121.88,-207.5 121.88,-207.5 121.88,-213.5 115.88,-219.5 109.88,-219.5"/>
<text xml:space="preserve" text-anchor="middle" x="69.62" y="-204" font-family="Arial" font-size="10.00">Fix or revert refactor</text>
<text xml:space="preserve" text-anchor="middle" x="69.62" y="-192" font-family="Arial" font-size="10.00">and re&#45;run tests</text>
</g>
<!-- refactor_ok&#45;&gt;fix_refactor -->
<g id="edge18" class="edge">
<title>refactor_ok&#45;&gt;fix_refactor</title>
<path fill="none" stroke="black" d="M112.65,-281.26C112.65,-281.26 112.65,-231.48 112.65,-231.48"/>
<polygon fill="black" stroke="black" points="116.15,-231.48 112.65,-221.48 109.15,-231.48 116.15,-231.48"/>
<text xml:space="preserve" text-anchor="middle" x="146.62" y="-239.45" font-family="Arial" font-size="9.00">No</text>
</g>
<!-- commit -->
<g id="node17" class="node">
<title>commit</title>
<path fill="none" stroke="black" d="M262.88,-219.5C262.88,-219.5 152.38,-219.5 152.38,-219.5 146.38,-219.5 140.38,-213.5 140.38,-207.5 140.38,-207.5 140.38,-195.5 140.38,-195.5 140.38,-189.5 146.38,-183.5 152.38,-183.5 152.38,-183.5 262.88,-183.5 262.88,-183.5 268.88,-183.5 274.88,-189.5 274.88,-195.5 274.88,-195.5 274.88,-207.5 274.88,-207.5 274.88,-213.5 268.88,-219.5 262.88,-219.5"/>
<text xml:space="preserve" text-anchor="middle" x="207.62" y="-204" font-family="Arial" font-size="10.00">Commit one logical change</text>
<text xml:space="preserve" text-anchor="middle" x="207.62" y="-192" font-family="Arial" font-size="10.00">(production&#45;ready)</text>
</g>
<!-- refactor_ok&#45;&gt;commit -->
<g id="edge20" class="edge">
<title>refactor_ok&#45;&gt;commit</title>
<path fill="none" stroke="black" d="M196.1,-270C196.1,-270 196.1,-231.43 196.1,-231.43"/>
<polygon fill="black" stroke="black" points="199.6,-231.43 196.1,-221.43 192.6,-231.43 199.6,-231.43"/>
<text xml:space="preserve" text-anchor="middle" x="200.12" y="-239.45" font-family="Arial" font-size="9.00">Yes</text>
</g>
<!-- fix_refactor&#45;&gt;run_refactor -->
<g id="edge19" class="edge">
<title>fix_refactor&#45;&gt;run_refactor</title>
<path fill="none" stroke="black" d="M63.59,-219.95C63.59,-261.14 63.59,-357 63.59,-357 63.59,-357 126.87,-357 126.87,-357"/>
<polygon fill="black" stroke="black" points="126.87,-360.5 136.87,-357 126.87,-353.5 126.87,-360.5"/>
</g>
<!-- next_cycle -->
<g id="node18" class="node">
<title>next_cycle</title>
<path fill="none" stroke="black" d="M243.33,-142.46C243.33,-142.46 176.42,-118.54 176.42,-118.54 170.77,-116.52 170.77,-112.48 176.42,-110.46 176.42,-110.46 243.33,-86.54 243.33,-86.54 248.98,-84.52 260.27,-84.52 265.92,-86.54 265.92,-86.54 332.83,-110.46 332.83,-110.46 338.48,-112.48 338.48,-116.52 332.83,-118.54 332.83,-118.54 265.92,-142.46 265.92,-142.46 260.27,-144.48 248.98,-144.48 243.33,-142.46"/>
<text xml:space="preserve" text-anchor="middle" x="254.62" y="-117" font-family="Arial" font-size="10.00">Another behavior</text>
<text xml:space="preserve" text-anchor="middle" x="254.62" y="-105" font-family="Arial" font-size="10.00">needed?</text>
</g>
<!-- commit&#45;&gt;next_cycle -->
<g id="edge21" class="edge">
<title>commit&#45;&gt;next_cycle</title>
<path fill="none" stroke="black" d="M220,-183.05C220,-183.05 220,-145.95 220,-145.95"/>
<polygon fill="black" stroke="black" points="223.5,-145.95 220,-135.95 216.5,-145.95 223.5,-145.95"/>
</g>
<!-- next_cycle&#45;&gt;scope -->
<g id="edge22" class="edge">
<title>next_cycle&#45;&gt;scope</title>
<path fill="none" stroke="black" d="M283.81,-136.43C283.81,-136.43 283.81,-1068.68 283.81,-1068.68"/>
<polygon fill="black" stroke="black" points="280.31,-1068.68 283.81,-1078.68 287.31,-1068.68 280.31,-1068.68"/>
<text xml:space="preserve" text-anchor="middle" x="310.12" y="-582.2" font-family="Arial" font-size="9.00">Yes</text>
</g>
<!-- done -->
<g id="node19" class="node">
<title>done</title>
<path fill="none" stroke="black" d="M269.62,-36C269.62,-36 239.62,-36 239.62,-36 233.62,-36 227.62,-30 227.62,-24 227.62,-24 227.62,-12 227.62,-12 227.62,-6 233.62,0 239.62,0 239.62,0 269.62,0 269.62,0 275.62,0 281.62,-6 281.62,-12 281.62,-12 281.62,-24 281.62,-24 281.62,-30 275.62,-36 269.62,-36"/>
<text xml:space="preserve" text-anchor="middle" x="254.62" y="-14.5" font-family="Arial" font-size="10.00">Done</text>
</g>
<!-- next_cycle&#45;&gt;done -->
<g id="edge23" class="edge">
<title>next_cycle&#45;&gt;done</title>
<path fill="none" stroke="black" d="M254.62,-82.1C254.62,-82.1 254.62,-47.9 254.62,-47.9"/>
<polygon fill="black" stroke="black" points="258.13,-47.9 254.63,-37.9 251.13,-47.9 258.13,-47.9"/>
<text xml:space="preserve" text-anchor="middle" x="260.62" y="-55.95" font-family="Arial" font-size="9.00">No</text>
</g>
</g>
</svg>
